<svg width="324" height="205" viewBox="0 0 324 205" fill="none" xmlns="http://www.w3.org/2000/svg">
<path d="M11.9688 185.544H23.3398L23.4248 185.15C23.9647 182.649 24.258 179.414 24.3105 175.456L24.3174 174.95H11.9688V185.544ZM26.5186 175.433C26.3767 179.63 26.0862 182.796 25.6533 184.946L25.5332 185.544H39.127V174.95H26.5352L26.5186 175.433ZM31.5 156.053C32.5519 156.111 33.4487 156.201 34.1934 156.33V156.331C34.2696 156.345 34.3251 156.36 34.3633 156.375C34.371 156.378 34.3779 156.382 34.3838 156.385C34.3712 156.453 34.329 156.572 34.208 156.753L34.1963 156.772L34.1855 156.792C34.0936 156.961 34.036 157.181 33.9941 157.407C33.9501 157.644 33.9149 157.936 33.8877 158.277C33.8332 158.959 33.8066 159.87 33.8066 161.006V161.771H41.7871L48.7803 161.665V163.871L41.7871 163.766H33.7939L33.8066 164.279L33.9111 168.59H31.6543L31.7578 164.279L31.7705 163.766H19.3506L19.3623 164.279L19.4668 168.59H17.2109L17.3145 164.279L17.3262 163.766H9.5459L2.55273 163.87V161.666L9.5459 161.771H17.3145V161.271C17.3144 158.951 17.2303 157.218 17.0566 156.109C17.95 156.161 18.861 156.235 19.7891 156.333C19.8518 156.346 19.8974 156.36 19.9287 156.372C19.9301 156.373 19.9313 156.374 19.9326 156.374C19.9277 156.391 19.9227 156.413 19.9121 156.441C19.8791 156.527 19.8247 156.642 19.7432 156.789L19.7363 156.801L19.7305 156.814C19.6465 156.989 19.5907 157.216 19.5488 157.459C19.5054 157.713 19.4706 158.023 19.4434 158.385C19.3889 159.11 19.3623 160.073 19.3623 161.271V161.771H31.7588V161.271C31.7588 158.918 31.6739 157.167 31.5 156.053ZM9.76172 177.506L9.65723 172.956L17.2324 173.061H24.3643V172.561C24.3643 170.372 24.2865 168.654 24.1299 167.421C24.6308 167.452 25.2058 167.497 25.8555 167.557L26.835 167.653C26.996 167.669 27.0888 167.701 27.1387 167.722C27.1306 167.754 27.1217 167.795 27.1074 167.845C27.0661 167.989 27.0022 168.192 26.915 168.453C26.8561 168.6 26.8159 168.783 26.7861 168.969C26.7502 169.194 26.7194 169.476 26.6924 169.812C26.6383 170.484 26.5979 171.398 26.5713 172.549L26.5596 173.061H33.9688L41.4893 172.956L41.3857 177.506V185.552L41.8936 185.544L48.5947 185.439V187.59L41.4697 187.486H26.5693L27.0771 188.26C31.4837 194.984 38.839 199.268 49.0479 201.172C48.6814 201.655 48.3527 202.237 48.0576 202.91C47.9161 203.216 47.7928 203.411 47.6943 203.522C47.6542 203.567 47.6259 203.587 47.6113 203.597C47.5066 203.592 47.318 203.558 47.0195 203.463L47.001 203.457L46.9834 203.453L46.0723 203.229C41.5489 202.066 37.5173 200.3 33.9736 197.933H33.9746C30.2667 195.444 27.4073 192.475 25.3818 189.031L24.8721 188.164L24.4883 189.093C23.8278 190.692 23.1026 192.055 22.3164 193.185C19.0554 197.835 13.3249 201.274 5.02344 203.45C4.82345 203.483 4.66704 203.508 4.55273 203.525C4.4531 203.539 4.40476 203.544 4.38965 203.545C4.37828 203.541 4.3469 203.526 4.29492 203.474C4.20449 203.383 4.09021 203.22 3.96094 202.953L3.95312 202.937L3.94336 202.921C3.66763 202.445 3.33857 201.985 2.95898 201.539C11.5254 199.611 17.4826 196.354 20.6982 191.689C21.4317 190.626 22.0249 189.445 22.4805 188.152L22.7148 187.486H10.0225L2.87109 187.59V185.439L9.25391 185.544L9.76172 185.552V177.506Z" fill="#FF7700" stroke="#FF7700"/>
<path d="M66.9765 183.715H93.831V183.716L93.8379 183.715L101.255 183.611V185.867L93.8379 185.764H76.9013L76.7754 186.078C74.9251 190.713 73.049 194.877 71.1494 198.57L70.7451 199.357L71.6279 199.298C77.7328 198.891 84.4271 198.28 91.7129 197.467L92.5996 197.368L92.0517 196.663C90.5801 194.77 88.901 192.794 87.0195 190.733C87.0442 190.72 87.0706 190.705 87.1006 190.691L87.1279 190.677L88.6992 189.811L88.7002 189.812C88.793 189.765 88.8629 189.736 88.9131 189.719C88.9144 189.718 88.9156 189.717 88.917 189.717L88.9179 189.718C92.1601 192.996 95.6229 197.256 99.3047 202.505L99.3056 202.507C99.2722 202.536 99.2251 202.573 99.1572 202.615L99.1484 202.62L99.1406 202.626L97.4883 203.753C97.3607 203.827 97.2622 203.879 97.1894 203.911C97.1702 203.89 97.1479 203.864 97.123 203.831C95.6822 201.634 94.6459 200.11 94.0195 199.269L93.8447 199.033L93.5537 199.071C84.5181 200.254 74.5634 201.243 63.6875 202.037H63.6787L63.6709 202.038C63.0782 202.101 62.5894 202.176 62.2138 202.268C62.0261 202.313 61.8564 202.367 61.7109 202.428C61.5717 202.487 61.4212 202.567 61.3027 202.685C61.1729 202.814 61.0596 202.854 60.9482 202.856C60.9274 202.834 60.8817 202.77 60.8349 202.622C60.5852 201.817 60.355 200.826 60.1396 199.648C60.8294 199.679 61.5289 199.696 62.2392 199.696C63.203 199.696 64.2787 199.67 65.4687 199.616L65.4677 199.615C65.9637 199.614 66.7475 199.579 67.8105 199.51L68.0888 199.492L68.2197 199.246C70.5261 194.916 72.4361 190.645 73.9472 186.433L74.1875 185.764H66.9765L59.5595 185.868V183.61L66.9765 183.715ZM78.8769 155.489C80.0238 155.655 80.9918 155.861 81.7841 156.105V156.104C82.0078 156.173 82.1262 156.243 82.1806 156.29C82.1884 156.297 82.1934 156.303 82.1972 156.307C82.1951 156.345 82.1877 156.36 82.1845 156.365C82.1802 156.372 82.163 156.396 82.1045 156.425L82.0781 156.439L82.0527 156.455C81.9954 156.493 81.7962 156.629 81.4629 156.858L81.0332 157.152L81.3447 157.57C84.7655 162.149 88.6556 165.959 93.0136 168.995V168.996C96.4666 171.411 100.471 173.496 105.022 175.256C104.57 175.791 104.19 176.368 103.886 176.987C103.734 177.264 103.613 177.45 103.523 177.561C103.521 177.56 103.518 177.56 103.516 177.559C103.411 177.515 103.267 177.446 103.081 177.344L103.063 177.333L103.044 177.325L102.133 176.914C92.7869 172.619 85.5706 166.802 80.459 159.475L80.0439 158.881L79.6357 159.479C74.6934 166.71 67.4942 172.701 58.0146 177.442L58.0058 177.445L57.998 177.449C57.8141 177.55 57.6697 177.619 57.5605 177.661C57.5338 177.672 57.5101 177.678 57.4912 177.684C57.4881 177.68 57.4847 177.677 57.4814 177.673C57.3966 177.576 57.2825 177.406 57.1396 177.145L57.1279 177.125C56.797 176.579 56.4144 176.102 55.9824 175.694C60.8621 173.584 65.2563 170.902 69.1591 167.645H69.1601C72.604 164.754 75.4044 161.614 77.5556 158.227L77.5615 158.217L77.5674 158.208C78.1479 157.199 78.5867 156.291 78.8769 155.489ZM75.9062 173.83H84.7216L90.998 173.725V175.929L84.7216 175.825H75.9062L69.6299 175.93V173.725L75.9062 173.83Z" fill="#FF7700" stroke="#FF7700"/>
<mask id="path-3-inside-1_69_7" fill="white">
<path d="M129.502 168.242C129.502 168.56 129.352 168.719 129.051 168.719L123.354 168.613H116.675L110.976 168.719C110.694 168.719 110.553 168.56 110.553 168.242V165.989C110.553 165.707 110.694 165.565 110.976 165.565L116.675 165.671H123.354L129.051 165.565C129.352 165.565 129.502 165.707 129.502 165.989V168.242ZM127.992 203.092C127.992 203.374 127.841 203.516 127.541 203.516H125.314C125.032 203.516 124.89 203.374 124.89 203.092V201.29H116.092V204.046C116.092 204.346 115.951 204.497 115.668 204.497H113.442C113.141 204.497 112.991 204.346 112.991 204.046L113.097 196.069V192.756L112.991 188.039C112.991 187.756 113.133 187.614 113.415 187.614L118.212 187.72H122.718L127.567 187.614C127.849 187.614 127.992 187.756 127.992 188.039L127.885 191.908V195.433L127.992 203.092ZM128.203 160.741C128.203 161.025 128.053 161.166 127.753 161.166L122.982 161.06H118.318L113.548 161.166C113.247 161.166 113.097 161.025 113.097 160.741V158.568C113.097 158.286 113.247 158.144 113.548 158.144L118.318 158.25H122.982L127.753 158.144C128.053 158.144 128.203 158.286 128.203 158.568V160.741ZM127.435 175.609C127.435 175.892 127.267 176.033 126.931 176.033L122.506 175.927H118.424L113.918 176.033C113.636 176.033 113.495 175.892 113.495 175.609V173.489C113.495 173.207 113.636 173.065 113.918 173.065L118.424 173.171H122.506L126.931 173.065C127.267 173.065 127.435 173.207 127.435 173.489V175.609ZM127.435 182.818C127.435 183.119 127.267 183.269 126.931 183.269L122.506 183.162H118.424L113.918 183.269C113.636 183.269 113.495 183.119 113.495 182.818V180.697C113.495 180.416 113.636 180.274 113.918 180.274L118.424 180.38H122.506L126.931 180.274C127.267 180.274 127.435 180.416 127.435 180.697V182.818ZM124.89 198.64V190.371H116.092V198.64H124.89ZM158.866 175.398C158.866 175.68 158.716 175.821 158.416 175.821L151.155 175.715H145.51V184.673H148.663L155.129 184.567C155.412 184.567 155.554 184.708 155.554 184.991L155.448 190.106V194.717L155.554 203.728C155.554 204.01 155.412 204.152 155.129 204.152H152.665C152.383 204.152 152.241 204.01 152.241 203.728V201.343H136.075V204.046C136.075 204.346 135.933 204.497 135.65 204.497H133.186C132.903 204.497 132.761 204.346 132.761 204.046L132.867 194.876V190.822L132.761 184.991C132.761 184.708 132.903 184.567 133.186 184.567L139.653 184.673H142.249V175.715H137.692L130.483 175.821C130.2 175.821 130.059 175.68 130.059 175.398V173.038C130.059 172.756 130.2 172.614 130.483 172.614L137.692 172.72H142.249V163.525C139.317 164.178 136.295 164.717 133.186 165.141C132.938 165.177 132.761 165.194 132.655 165.194C132.391 165.194 132.152 164.92 131.94 164.372C131.64 163.578 131.207 162.898 130.642 162.332C138.203 161.625 144.714 160.176 150.174 157.985C151.569 157.403 152.638 156.802 153.38 156.183C154.299 156.978 155.04 157.738 155.607 158.463C155.854 158.763 155.978 159.037 155.978 159.284C155.978 159.567 155.686 159.708 155.104 159.708C154.627 159.708 154.07 159.84 153.434 160.106C150.73 161.113 148.088 161.979 145.51 162.702V172.72H151.155L158.416 172.614C158.716 172.614 158.866 172.756 158.866 173.038V175.398ZM152.241 198.454V187.562H136.075V198.454H152.241Z"/>
</mask>
<path d="M129.502 168.242C129.502 168.56 129.352 168.719 129.051 168.719L123.354 168.613H116.675L110.976 168.719C110.694 168.719 110.553 168.56 110.553 168.242V165.989C110.553 165.707 110.694 165.565 110.976 165.565L116.675 165.671H123.354L129.051 165.565C129.352 165.565 129.502 165.707 129.502 165.989V168.242ZM127.992 203.092C127.992 203.374 127.841 203.516 127.541 203.516H125.314C125.032 203.516 124.89 203.374 124.89 203.092V201.29H116.092V204.046C116.092 204.346 115.951 204.497 115.668 204.497H113.442C113.141 204.497 112.991 204.346 112.991 204.046L113.097 196.069V192.756L112.991 188.039C112.991 187.756 113.133 187.614 113.415 187.614L118.212 187.72H122.718L127.567 187.614C127.849 187.614 127.992 187.756 127.992 188.039L127.885 191.908V195.433L127.992 203.092ZM128.203 160.741C128.203 161.025 128.053 161.166 127.753 161.166L122.982 161.06H118.318L113.548 161.166C113.247 161.166 113.097 161.025 113.097 160.741V158.568C113.097 158.286 113.247 158.144 113.548 158.144L118.318 158.25H122.982L127.753 158.144C128.053 158.144 128.203 158.286 128.203 158.568V160.741ZM127.435 175.609C127.435 175.892 127.267 176.033 126.931 176.033L122.506 175.927H118.424L113.918 176.033C113.636 176.033 113.495 175.892 113.495 175.609V173.489C113.495 173.207 113.636 173.065 113.918 173.065L118.424 173.171H122.506L126.931 173.065C127.267 173.065 127.435 173.207 127.435 173.489V175.609ZM127.435 182.818C127.435 183.119 127.267 183.269 126.931 183.269L122.506 183.162H118.424L113.918 183.269C113.636 183.269 113.495 183.119 113.495 182.818V180.697C113.495 180.416 113.636 180.274 113.918 180.274L118.424 180.38H122.506L126.931 180.274C127.267 180.274 127.435 180.416 127.435 180.697V182.818ZM124.89 198.64V190.371H116.092V198.64H124.89ZM158.866 175.398C158.866 175.68 158.716 175.821 158.416 175.821L151.155 175.715H145.51V184.673H148.663L155.129 184.567C155.412 184.567 155.554 184.708 155.554 184.991L155.448 190.106V194.717L155.554 203.728C155.554 204.01 155.412 204.152 155.129 204.152H152.665C152.383 204.152 152.241 204.01 152.241 203.728V201.343H136.075V204.046C136.075 204.346 135.933 204.497 135.65 204.497H133.186C132.903 204.497 132.761 204.346 132.761 204.046L132.867 194.876V190.822L132.761 184.991C132.761 184.708 132.903 184.567 133.186 184.567L139.653 184.673H142.249V175.715H137.692L130.483 175.821C130.2 175.821 130.059 175.68 130.059 175.398V173.038C130.059 172.756 130.2 172.614 130.483 172.614L137.692 172.72H142.249V163.525C139.317 164.178 136.295 164.717 133.186 165.141C132.938 165.177 132.761 165.194 132.655 165.194C132.391 165.194 132.152 164.92 131.94 164.372C131.64 163.578 131.207 162.898 130.642 162.332C138.203 161.625 144.714 160.176 150.174 157.985C151.569 157.403 152.638 156.802 153.38 156.183C154.299 156.978 155.04 157.738 155.607 158.463C155.854 158.763 155.978 159.037 155.978 159.284C155.978 159.567 155.686 159.708 155.104 159.708C154.627 159.708 154.07 159.84 153.434 160.106C150.73 161.113 148.088 161.979 145.51 162.702V172.72H151.155L158.416 172.614C158.716 172.614 158.866 172.756 158.866 173.038V175.398ZM152.241 198.454V187.562H136.075V198.454H152.241Z" fill="#FF7700" stroke="#FF7700" stroke-width="2" mask="url(#path-3-inside-1_69_7)"/>
<path d="M194.163 161.083C192.582 168.811 190.254 175.488 187.182 181.121L187.019 181.42L187.237 181.68C192.022 187.429 196.139 193.345 199.591 199.426L196.462 201.418C193.625 195.678 190.104 190.1 185.896 184.684L185.464 184.129L185.082 184.718C180.469 191.827 174.202 197.421 166.272 201.502L164.498 199.176C171.652 195.353 177.319 190.51 181.478 184.639L181.885 184.053C185.569 178.655 188.241 172.071 189.913 164.319L190.043 163.714H167.131V161.083H194.163Z" fill="#FF7700" stroke="#FF7700"/>
<path d="M221.388 157.891C221.034 159.165 220.569 160.672 219.984 162.411L219.762 163.07H238.699C236.983 175.216 233.577 184.434 228.521 190.774C224.602 195.687 219.076 199.604 211.918 202.516L210.195 200.411C217.4 197.443 222.943 193.365 226.796 188.161L227.173 187.639C230.996 182.255 233.56 175.115 234.893 166.249L234.979 165.675H218.773L218.644 165.981C216.186 171.856 212.987 176.895 209.058 181.109L206.754 179.337C212.31 173.3 216.092 165.978 218.108 157.384L221.388 157.891Z" fill="#FF7700" stroke="#FF7700"/>
<path d="M275.136 178.76V181.788H246.612V178.76H275.136Z" fill="#FF7700" stroke="#FF7700"/>
<path d="M304.42 159.333V196.96L305.201 196.43C310.998 192.496 315.64 186.453 319.145 178.344L321.215 181.046C316.718 190.156 310.677 197.029 303.097 201.695L301.286 200.748V159.333H304.42ZM292.864 159.705C292.859 169.09 292.704 176.033 292.4 180.544L292.337 181.428C292.038 185.226 291.53 188.222 290.823 190.431H290.822C289.459 194.703 286.973 198.43 283.354 201.62L281.045 199.815C284.313 197.302 286.658 193.743 288.092 189.169L288.094 189.162C288.783 186.837 289.236 183.065 289.466 177.884C289.639 173.941 289.727 167.88 289.73 159.705H292.864Z" fill="#FF7700" stroke="#FF7700"/>
<path d="M26.7763 138.235H3.37855L39.0298 34.9619H67.1676L102.768 138.235H79.3707L53.5021 58.5614H52.6953L26.7763 138.235ZM25.3139 97.6416H80.581V114.686H25.3139V97.6416ZM123.719 138.235V34.9619H165.068C172.665 34.9619 179.002 36.0881 184.079 38.3405C189.155 40.5929 192.97 43.7193 195.525 47.7198C198.08 51.6866 199.358 56.2586 199.358 61.4357C199.358 65.4698 198.551 69.0164 196.937 72.0756C195.324 75.1012 193.105 77.5888 190.281 79.5387C187.491 81.4548 184.297 82.8164 180.7 83.6232V84.6317C184.633 84.7998 188.314 85.9092 191.743 87.9598C195.206 90.0105 198.013 92.8848 200.165 96.5827C202.316 100.247 203.392 104.617 203.392 109.693C203.392 115.173 202.03 120.064 199.307 124.367C196.618 128.637 192.634 132.015 187.356 134.503C182.078 136.991 175.573 138.235 167.841 138.235H123.719ZM145.553 120.384H163.353C169.438 120.384 173.876 119.224 176.666 116.904C179.456 114.551 180.851 111.425 180.851 107.525C180.851 104.668 180.162 102.146 178.784 99.9612C177.406 97.7761 175.439 96.0616 172.884 94.8178C170.363 93.5739 167.354 92.952 163.858 92.952H145.553V120.384ZM145.553 78.1772H161.74C164.732 78.1772 167.388 77.6561 169.707 76.6139C172.06 75.5382 173.909 74.0254 175.254 72.0756C176.632 70.1258 177.321 67.7894 177.321 65.0664C177.321 61.3348 175.994 58.3261 173.338 56.0401C170.716 53.7541 166.984 52.6111 162.143 52.6111H145.553V78.1772ZM317.239 71.1175H295.153C294.749 68.26 293.926 65.7219 292.682 63.5031C291.438 61.2508 289.841 59.3346 287.891 57.7546C285.942 56.1745 283.689 54.9643 281.134 54.1239C278.613 53.2834 275.873 52.8632 272.915 52.8632C267.57 52.8632 262.914 54.1911 258.947 56.8469C254.98 59.4691 251.904 63.3014 249.719 68.3441C247.534 73.353 246.441 79.4378 246.441 86.5983C246.441 93.9605 247.534 100.146 249.719 105.155C251.938 110.164 255.03 113.946 258.997 116.501C262.964 119.056 267.553 120.333 272.764 120.333C275.688 120.333 278.394 119.947 280.882 119.174C283.403 118.4 285.639 117.274 287.589 115.795C289.539 114.282 291.152 112.45 292.43 110.299C293.741 108.147 294.648 105.693 295.153 102.936L317.239 103.037C316.668 107.777 315.239 112.349 312.953 116.753C310.701 121.123 307.658 125.04 303.826 128.502C300.027 131.931 295.489 134.654 290.211 136.671C284.967 138.655 279.033 139.647 272.411 139.647C263.199 139.647 254.963 137.562 247.702 133.394C240.474 129.225 234.759 123.191 230.557 115.291C226.388 107.391 224.304 97.8265 224.304 86.5983C224.304 75.3365 226.422 65.7555 230.658 57.8554C234.894 49.9553 240.642 43.9378 247.903 39.8029C255.165 35.6343 263.334 33.55 272.411 33.55C278.394 33.55 283.941 34.3905 289.051 36.0713C294.195 37.7522 298.75 40.2063 302.717 43.4335C306.684 46.6272 309.911 50.5436 312.398 55.1828C314.92 59.822 316.533 65.1336 317.239 71.1175Z" fill="#FF7700"/>
</svg>
