<svg width="324" height="205" viewBox="0 0 324 205" fill="none" xmlns="http://www.w3.org/2000/svg">
<path d="M11.9688 185.31H23.3398L23.4248 184.915C23.9647 182.414 24.258 179.179 24.3105 175.222L24.3174 174.715H11.9688V185.31ZM26.5186 175.198C26.3767 179.396 26.0862 182.561 25.6533 184.711L25.5332 185.31H39.127V174.715H26.5352L26.5186 175.198ZM31.5 155.818C32.5519 155.876 33.4487 155.967 34.1934 156.096V156.097C34.2696 156.11 34.3251 156.126 34.3633 156.141C34.371 156.144 34.3779 156.148 34.3838 156.15C34.3712 156.218 34.329 156.337 34.208 156.519L34.1963 156.537L34.1855 156.558C34.0936 156.727 34.036 156.946 33.9941 157.172C33.9501 157.41 33.9149 157.701 33.8877 158.042C33.8332 158.724 33.8066 159.636 33.8066 160.772V161.536H41.7871L48.7803 161.431V163.637L41.7871 163.531H33.7939L33.8066 164.044L33.9111 168.356H31.6543L31.7578 164.044L31.7705 163.531H19.3506L19.3623 164.044L19.4668 168.356H17.2109L17.3145 164.044L17.3262 163.531H9.5459L2.55273 163.636V161.432L9.5459 161.536H17.3145V161.036C17.3144 158.716 17.2303 156.983 17.0566 155.874C17.95 155.927 18.861 156.001 19.7891 156.099C19.8518 156.111 19.8974 156.125 19.9287 156.138C19.9301 156.138 19.9313 156.139 19.9326 156.14C19.9277 156.156 19.9227 156.179 19.9121 156.206C19.8791 156.292 19.8247 156.407 19.7432 156.555L19.7363 156.566L19.7305 156.579C19.6465 156.754 19.5907 156.981 19.5488 157.225C19.5054 157.478 19.4706 157.788 19.4434 158.15C19.3889 158.875 19.3623 159.839 19.3623 161.036V161.536H31.7588V161.036C31.7588 158.684 31.6739 156.932 31.5 155.818ZM9.76172 177.272L9.65723 172.722L17.2324 172.826H24.3643V172.326C24.3643 170.137 24.2865 168.419 24.1299 167.187C24.6308 167.217 25.2058 167.262 25.8555 167.322L26.835 167.418C26.996 167.435 27.0888 167.466 27.1387 167.487C27.1306 167.52 27.1217 167.561 27.1074 167.61C27.0661 167.755 27.0022 167.957 26.915 168.219C26.8561 168.365 26.8159 168.548 26.7861 168.734C26.7502 168.959 26.7194 169.242 26.6924 169.577C26.6383 170.249 26.5979 171.163 26.5713 172.315L26.5596 172.826H33.9688L41.4893 172.722L41.3857 177.272V185.317L41.8936 185.31L48.5947 185.204V187.356L41.4697 187.251H26.5693L27.0771 188.025C31.4837 194.749 38.839 199.034 49.0479 200.938C48.6814 201.42 48.3527 202.003 48.0576 202.675C47.9161 202.982 47.7928 203.177 47.6943 203.287C47.6542 203.332 47.6259 203.353 47.6113 203.362C47.5066 203.357 47.318 203.323 47.0195 203.229L47.001 203.223L46.9834 203.219L46.0723 202.994C41.5489 201.832 37.5173 200.066 33.9736 197.698H33.9746C30.2667 195.209 27.4073 192.24 25.3818 188.796L24.8721 187.93L24.4883 188.858C23.8278 190.457 23.1026 191.82 22.3164 192.95C19.0554 197.6 13.3249 201.04 5.02344 203.215C4.82345 203.248 4.66704 203.274 4.55273 203.29C4.4531 203.304 4.40476 203.309 4.38965 203.311C4.37828 203.306 4.3469 203.291 4.29492 203.239C4.20449 203.149 4.09021 202.985 3.96094 202.719L3.95312 202.702L3.94336 202.687C3.66763 202.21 3.33857 201.75 2.95898 201.305C11.5254 199.377 17.4826 196.119 20.6982 191.454C21.4317 190.391 22.0249 189.21 22.4805 187.917L22.7148 187.251H10.0225L2.87109 187.356V185.204L9.25391 185.31L9.76172 185.317V177.272Z" fill="white" stroke="white"/>
<path d="M66.9765 183.48H93.831V183.481L93.8379 183.48L101.255 183.376V185.633L93.8379 185.529H76.9013L76.7754 185.844C74.9251 190.478 73.049 194.642 71.1494 198.336L70.7451 199.122L71.6279 199.063C77.7328 198.657 84.4271 198.046 91.7129 197.232L92.5996 197.134L92.0517 196.429C90.5801 194.536 88.901 192.559 87.0195 190.498C87.0442 190.485 87.0706 190.47 87.1006 190.456L87.1279 190.442L88.6992 189.576L88.7002 189.577C88.793 189.531 88.8629 189.501 88.9131 189.484C88.9144 189.484 88.9156 189.483 88.917 189.482L88.9179 189.483C92.1601 192.761 95.6229 197.021 99.3047 202.27L99.3056 202.272C99.2722 202.301 99.2251 202.338 99.1572 202.381L99.1484 202.386L99.1406 202.391L97.4883 203.518C97.3607 203.593 97.2622 203.644 97.1894 203.677C97.1702 203.656 97.1479 203.629 97.123 203.597C95.6822 201.4 94.6459 199.876 94.0195 199.034L93.8447 198.799L93.5537 198.837C84.5181 200.019 74.5634 201.008 63.6875 201.803H63.6787L63.6709 201.804C63.0782 201.866 62.5894 201.942 62.2138 202.033C62.0261 202.079 61.8564 202.132 61.7109 202.193C61.5717 202.252 61.4212 202.332 61.3027 202.45C61.1729 202.579 61.0596 202.619 60.9482 202.621C60.9274 202.599 60.8817 202.535 60.8349 202.388C60.5852 201.582 60.355 200.591 60.1396 199.413C60.8294 199.444 61.5289 199.462 62.2392 199.462C63.203 199.462 64.2787 199.435 65.4687 199.382L65.4677 199.381C65.9637 199.38 66.7475 199.345 67.8105 199.275L68.0888 199.258L68.2197 199.012C70.5261 194.681 72.4361 190.41 73.9472 186.198L74.1875 185.529H66.9765L59.5595 185.634V183.375L66.9765 183.48ZM78.8769 155.255C80.0238 155.42 80.9918 155.626 81.7841 155.87V155.869C82.0078 155.939 82.1262 156.009 82.1806 156.056C82.1884 156.062 82.1934 156.068 82.1972 156.072C82.1951 156.111 82.1877 156.126 82.1845 156.131C82.1802 156.138 82.163 156.161 82.1045 156.19L82.0781 156.204L82.0527 156.221C81.9954 156.258 81.7962 156.394 81.4629 156.623L81.0332 156.917L81.3447 157.335C84.7655 161.915 88.6556 165.724 93.0136 168.761V168.762C96.4666 171.177 100.471 173.261 105.022 175.021C104.57 175.557 104.19 176.133 103.886 176.752C103.734 177.03 103.613 177.215 103.523 177.326C103.521 177.325 103.518 177.325 103.516 177.324C103.411 177.281 103.267 177.211 103.081 177.109L103.063 177.099L103.044 177.091L102.133 176.68C92.7869 172.384 85.5706 166.568 80.459 159.24L80.0439 158.646L79.6357 159.244C74.6934 166.475 67.4942 172.467 58.0146 177.207L58.0058 177.211L57.998 177.215C57.8141 177.315 57.6697 177.384 57.5605 177.427C57.5338 177.437 57.5101 177.443 57.4912 177.449C57.4881 177.446 57.4847 177.442 57.4814 177.438C57.3966 177.341 57.2825 177.171 57.1396 176.91L57.1279 176.891C56.797 176.344 56.4144 175.867 55.9824 175.459C60.8621 173.349 65.2563 170.667 69.1591 167.41H69.1601C72.604 164.519 75.4044 161.38 77.5556 157.992L77.5615 157.982L77.5674 157.974C78.1479 156.964 78.5867 156.056 78.8769 155.255ZM75.9062 173.596H84.7216L90.998 173.49V175.694L84.7216 175.591H75.9062L69.6299 175.695V173.49L75.9062 173.596Z" fill="white" stroke="white"/>
<mask id="path-3-inside-1_70_17" fill="white">
<path d="M129.502 168.007C129.502 168.325 129.352 168.484 129.051 168.484L123.354 168.378H116.675L110.976 168.484C110.694 168.484 110.553 168.325 110.553 168.007V165.754C110.553 165.472 110.694 165.33 110.976 165.33L116.675 165.436H123.354L129.051 165.33C129.352 165.33 129.502 165.472 129.502 165.754V168.007ZM127.992 202.858C127.992 203.139 127.841 203.281 127.541 203.281H125.314C125.032 203.281 124.89 203.139 124.89 202.858V201.056H116.092V203.812C116.092 204.111 115.951 204.262 115.668 204.262H113.442C113.141 204.262 112.991 204.111 112.991 203.812L113.097 195.835V192.521L112.991 187.804C112.991 187.522 113.133 187.38 113.415 187.38L118.212 187.486H122.718L127.567 187.38C127.849 187.38 127.992 187.522 127.992 187.804L127.885 191.673V195.198L127.992 202.858ZM128.203 160.506C128.203 160.79 128.053 160.931 127.753 160.931L122.982 160.825H118.318L113.548 160.931C113.247 160.931 113.097 160.79 113.097 160.506V158.334C113.097 158.051 113.247 157.91 113.548 157.91L118.318 158.016H122.982L127.753 157.91C128.053 157.91 128.203 158.051 128.203 158.334V160.506ZM127.435 175.375C127.435 175.657 127.267 175.799 126.931 175.799L122.506 175.692H118.424L113.918 175.799C113.636 175.799 113.495 175.657 113.495 175.375V173.255C113.495 172.972 113.636 172.83 113.918 172.83L118.424 172.936H122.506L126.931 172.83C127.267 172.83 127.435 172.972 127.435 173.255V175.375ZM127.435 182.583C127.435 182.884 127.267 183.034 126.931 183.034L122.506 182.928H118.424L113.918 183.034C113.636 183.034 113.495 182.884 113.495 182.583V180.463C113.495 180.181 113.636 180.039 113.918 180.039L118.424 180.145H122.506L126.931 180.039C127.267 180.039 127.435 180.181 127.435 180.463V182.583ZM124.89 198.405V190.137H116.092V198.405H124.89ZM158.866 175.163C158.866 175.446 158.716 175.586 158.416 175.586L151.155 175.481H145.51V184.438H148.663L155.129 184.332C155.412 184.332 155.554 184.474 155.554 184.756L155.448 189.871V194.482L155.554 203.493C155.554 203.776 155.412 203.918 155.129 203.918H152.665C152.383 203.918 152.241 203.776 152.241 203.493V201.108H136.075V203.812C136.075 204.111 135.933 204.262 135.65 204.262H133.186C132.903 204.262 132.761 204.111 132.761 203.812L132.867 194.642V190.587L132.761 184.756C132.761 184.474 132.903 184.332 133.186 184.332L139.653 184.438H142.249V175.481H137.692L130.483 175.586C130.2 175.586 130.059 175.446 130.059 175.163V172.803C130.059 172.522 130.2 172.38 130.483 172.38L137.692 172.486H142.249V163.29C139.317 163.943 136.295 164.482 133.186 164.906C132.938 164.942 132.761 164.959 132.655 164.959C132.391 164.959 132.152 164.685 131.94 164.138C131.64 163.343 131.207 162.663 130.642 162.097C138.203 161.39 144.714 159.941 150.174 157.75C151.569 157.168 152.638 156.567 153.38 155.948C154.299 156.743 155.04 157.504 155.607 158.228C155.854 158.529 155.978 158.802 155.978 159.05C155.978 159.332 155.686 159.473 155.104 159.473C154.627 159.473 154.07 159.605 153.434 159.871C150.73 160.878 148.088 161.744 145.51 162.468V172.486H151.155L158.416 172.38C158.716 172.38 158.866 172.522 158.866 172.803V175.163ZM152.241 198.219V187.327H136.075V198.219H152.241Z"/>
</mask>
<path d="M129.502 168.007C129.502 168.325 129.352 168.484 129.051 168.484L123.354 168.378H116.675L110.976 168.484C110.694 168.484 110.553 168.325 110.553 168.007V165.754C110.553 165.472 110.694 165.33 110.976 165.33L116.675 165.436H123.354L129.051 165.33C129.352 165.33 129.502 165.472 129.502 165.754V168.007ZM127.992 202.858C127.992 203.139 127.841 203.281 127.541 203.281H125.314C125.032 203.281 124.89 203.139 124.89 202.858V201.056H116.092V203.812C116.092 204.111 115.951 204.262 115.668 204.262H113.442C113.141 204.262 112.991 204.111 112.991 203.812L113.097 195.835V192.521L112.991 187.804C112.991 187.522 113.133 187.38 113.415 187.38L118.212 187.486H122.718L127.567 187.38C127.849 187.38 127.992 187.522 127.992 187.804L127.885 191.673V195.198L127.992 202.858ZM128.203 160.506C128.203 160.79 128.053 160.931 127.753 160.931L122.982 160.825H118.318L113.548 160.931C113.247 160.931 113.097 160.79 113.097 160.506V158.334C113.097 158.051 113.247 157.91 113.548 157.91L118.318 158.016H122.982L127.753 157.91C128.053 157.91 128.203 158.051 128.203 158.334V160.506ZM127.435 175.375C127.435 175.657 127.267 175.799 126.931 175.799L122.506 175.692H118.424L113.918 175.799C113.636 175.799 113.495 175.657 113.495 175.375V173.255C113.495 172.972 113.636 172.83 113.918 172.83L118.424 172.936H122.506L126.931 172.83C127.267 172.83 127.435 172.972 127.435 173.255V175.375ZM127.435 182.583C127.435 182.884 127.267 183.034 126.931 183.034L122.506 182.928H118.424L113.918 183.034C113.636 183.034 113.495 182.884 113.495 182.583V180.463C113.495 180.181 113.636 180.039 113.918 180.039L118.424 180.145H122.506L126.931 180.039C127.267 180.039 127.435 180.181 127.435 180.463V182.583ZM124.89 198.405V190.137H116.092V198.405H124.89ZM158.866 175.163C158.866 175.446 158.716 175.586 158.416 175.586L151.155 175.481H145.51V184.438H148.663L155.129 184.332C155.412 184.332 155.554 184.474 155.554 184.756L155.448 189.871V194.482L155.554 203.493C155.554 203.776 155.412 203.918 155.129 203.918H152.665C152.383 203.918 152.241 203.776 152.241 203.493V201.108H136.075V203.812C136.075 204.111 135.933 204.262 135.65 204.262H133.186C132.903 204.262 132.761 204.111 132.761 203.812L132.867 194.642V190.587L132.761 184.756C132.761 184.474 132.903 184.332 133.186 184.332L139.653 184.438H142.249V175.481H137.692L130.483 175.586C130.2 175.586 130.059 175.446 130.059 175.163V172.803C130.059 172.522 130.2 172.38 130.483 172.38L137.692 172.486H142.249V163.29C139.317 163.943 136.295 164.482 133.186 164.906C132.938 164.942 132.761 164.959 132.655 164.959C132.391 164.959 132.152 164.685 131.94 164.138C131.64 163.343 131.207 162.663 130.642 162.097C138.203 161.39 144.714 159.941 150.174 157.75C151.569 157.168 152.638 156.567 153.38 155.948C154.299 156.743 155.04 157.504 155.607 158.228C155.854 158.529 155.978 158.802 155.978 159.05C155.978 159.332 155.686 159.473 155.104 159.473C154.627 159.473 154.07 159.605 153.434 159.871C150.73 160.878 148.088 161.744 145.51 162.468V172.486H151.155L158.416 172.38C158.716 172.38 158.866 172.522 158.866 172.803V175.163ZM152.241 198.219V187.327H136.075V198.219H152.241Z" fill="white" stroke="white" stroke-width="2" mask="url(#path-3-inside-1_70_17)"/>
<path d="M194.163 160.848C192.582 168.577 190.254 175.253 187.182 180.886L187.019 181.185L187.237 181.446C192.022 187.195 196.139 193.111 199.591 199.192L196.462 201.183C193.625 195.443 190.104 189.865 185.896 184.45L185.464 183.894L185.082 184.484C180.469 191.592 174.202 197.186 166.272 201.267L164.498 198.942C171.652 195.118 177.319 190.275 181.478 184.405L181.885 183.819C185.569 178.42 188.241 171.837 189.913 164.084L190.043 163.479H167.131V160.848H194.163Z" fill="white" stroke="white"/>
<path d="M221.388 157.656C221.034 158.93 220.569 160.438 219.984 162.176L219.762 162.836H238.699C236.983 174.981 233.577 184.199 228.521 190.54C224.602 195.452 219.076 199.369 211.918 202.281L210.195 200.176C217.4 197.208 222.943 193.13 226.796 187.926L227.173 187.404C230.996 182.02 233.56 174.881 234.893 166.014L234.979 165.44H218.773L218.644 165.747C216.186 171.622 212.987 176.66 209.058 180.875L206.754 179.102C212.31 173.065 216.092 165.743 218.108 157.149L221.388 157.656Z" fill="white" stroke="white"/>
<path d="M275.136 178.525V181.554H246.612V178.525H275.136Z" fill="white" stroke="white"/>
<path d="M304.42 159.098V196.725L305.201 196.195C310.998 192.261 315.64 186.218 319.145 178.109L321.215 180.811C316.718 189.921 310.677 196.794 303.097 201.461L301.286 200.513V159.098H304.42ZM292.864 159.47C292.859 168.856 292.704 175.799 292.4 180.309L292.337 181.193C292.038 184.991 291.53 187.987 290.823 190.196H290.822C289.459 194.468 286.973 198.195 283.354 201.385L281.045 199.581C284.313 197.068 286.658 193.508 288.092 188.934L288.094 188.927C288.783 186.602 289.236 182.831 289.466 177.649C289.639 173.707 289.727 167.646 289.73 159.47H292.864Z" fill="white" stroke="white"/>
<path d="M26.7763 138H3.37855L39.0298 34.7273H67.1676L102.768 138H79.3707L53.5021 58.3267H52.6953L26.7763 138ZM25.3139 97.407H80.581V114.451H25.3139V97.407ZM123.719 138V34.7273H165.068C172.665 34.7273 179.002 35.8535 184.079 38.1058C189.155 40.3582 192.97 43.4846 195.525 47.4851C198.08 51.4519 199.358 56.0239 199.358 61.201C199.358 65.2351 198.551 68.7817 196.937 71.8409C195.324 74.8665 193.105 77.3542 190.281 79.304C187.491 81.2202 184.297 82.5817 180.7 83.3885V84.397C184.633 84.5651 188.314 85.6745 191.743 87.7251C195.206 89.7758 198.013 92.6501 200.165 96.348C202.316 100.012 203.392 104.383 203.392 109.459C203.392 114.938 202.03 119.83 199.307 124.133C196.618 128.402 192.634 131.781 187.356 134.268C182.078 136.756 175.573 138 167.841 138H123.719ZM145.553 120.149H163.353C169.438 120.149 173.876 118.989 176.666 116.67C179.456 114.317 180.851 111.19 180.851 107.29C180.851 104.433 180.162 101.912 178.784 99.7266C177.406 97.5414 175.439 95.8269 172.884 94.5831C170.363 93.3393 167.354 92.7173 163.858 92.7173H145.553V120.149ZM145.553 77.9425H161.74C164.732 77.9425 167.388 77.4214 169.707 76.3793C172.06 75.3035 173.909 73.7907 175.254 71.8409C176.632 69.8911 177.321 67.5547 177.321 64.8317C177.321 61.1001 175.994 58.0914 173.338 55.8054C170.716 53.5194 166.984 52.3764 162.143 52.3764H145.553V77.9425ZM317.239 70.8828H295.153C294.749 68.0253 293.926 65.4872 292.682 63.2685C291.438 61.0161 289.841 59.0999 287.891 57.5199C285.942 55.9399 283.689 54.7296 281.134 53.8892C278.613 53.0488 275.873 52.6286 272.915 52.6286C267.57 52.6286 262.914 53.9564 258.947 56.6122C254.98 59.2344 251.904 63.0668 249.719 68.1094C247.534 73.1184 246.441 79.2031 246.441 86.3636C246.441 93.7258 247.534 99.9115 249.719 104.92C251.938 109.929 255.03 113.711 258.997 116.266C262.964 118.821 267.553 120.099 272.764 120.099C275.688 120.099 278.394 119.712 280.882 118.939C283.403 118.166 285.639 117.04 287.589 115.56C289.539 114.048 291.152 112.215 292.43 110.064C293.741 107.912 294.648 105.458 295.153 102.702L317.239 102.803C316.668 107.543 315.239 112.115 312.953 116.518C310.701 120.889 307.658 124.805 303.826 128.268C300.027 131.697 295.489 134.42 290.211 136.437C284.967 138.42 279.033 139.412 272.411 139.412C263.199 139.412 254.963 137.328 247.702 133.159C240.474 128.991 234.759 122.956 230.557 115.056C226.388 107.156 224.304 97.5919 224.304 86.3636C224.304 75.1018 226.422 65.5208 230.658 57.6207C234.894 49.7206 240.642 43.7031 247.903 39.5682C255.165 35.3996 263.334 33.3153 272.411 33.3153C278.394 33.3153 283.941 34.1558 289.051 35.8366C294.195 37.5175 298.75 39.9716 302.717 43.1989C306.684 46.3925 309.911 50.3089 312.398 54.9481C314.92 59.5874 316.533 64.8989 317.239 70.8828Z" fill="white"/>
</svg>
